# xmcd
#
# Track frame offsets: 
#        150
#        24369
#        48057
#        72632
#        93978
#        115483
#        137653
#        160189
#        181781
#        212661
#        243550
#        264998
#
# Disc length: 3841 seconds
#
# Revision: 0
# Processed by: cddbd v1.5.2PL0 Copyright (c) Steve Scherf et al.
# Submitted via: ExactAudioCopyFreeDBPlugin 1.0
#
DISCID=a00eff0c
DTITLE=Phuong Thanh - Khi giac mo ve
DYEAR=1900
DGENRE=
TTITLE0=Khi giac mo ve
TTITLE1=Trai tim co don
TTITLE2=Dem lao xao
TTITLE3=Hon em trong giac mo
TTITLE4=Khong yeu xin hay la ban
TTITLE5=Khoc trong dem
TTITLE6=TInh dau
TTITLE7=Loi noi doi cuoi cung
TTITLE8=Loi cuoi cho em
TTITLE9=Da khuc buon
TTITLE10=Hay ve voi em
TTITLE11=dem lao xao
EXTD=
EXTT0=
EXTT1=
EXTT2=
EXTT3=
EXTT4=
EXTT5=
EXTT6=
EXTT7=
EXTT8=
EXTT9=
EXTT10=
EXTT11=
PLAYORDER=
